<svg class="main-svg" xmlns="http://www.w3.org/2000/svg" xmlns:xlink="http://www.w3.org/1999/xlink" width="450" height="225" style="" viewBox="0 0 450 225"><rect x="0" y="0" width="450" height="225" style="fill: rgb(255, 255, 255); fill-opacity: 1;"/><defs id="defs-c44a61"><g class="clips"><clipPath id="clipc44a61xyplot" class="plotclip"><rect width="406" height="150"/></clipPath><clipPath class="axesclip" id="clipc44a61x"><rect x="39" y="0" width="406" height="225"/></clipPath><clipPath class="axesclip" id="clipc44a61y"><rect x="0" y="33" width="450" height="150"/></clipPath><clipPath class="axesclip" id="clipc44a61xy"><rect x="39" y="33" width="406" height="150"/></clipPath></g><g class="gradients"/><g class="patterns"/></defs><g class="bglayer"><rect class="bg" x="39" y="33" width="406" height="150" style="fill: rgb(229, 236, 246); fill-opacity: 1; stroke-width: 0;"/></g><g class="layer-below"><g class="imagelayer"/><g class="shapelayer"/></g><g class="cartesianlayer"><g class="subplot xy"><g class="layer-subplot"><g class="shapelayer"/><g class="imagelayer"/></g><g class="gridlayer"><g class="x"><path class="xgrid crisp" transform="translate(168.92,0)" d="M0,33v150" style="stroke: rgb(255, 255, 255); stroke-opacity: 1; stroke-width: 1px;"/><path class="xgrid crisp" transform="translate(298.84,0)" d="M0,33v150" style="stroke: rgb(255, 255, 255); stroke-opacity: 1; stroke-width: 1px;"/><path class="xgrid crisp" transform="translate(428.76,0)" d="M0,33v150" style="stroke: rgb(255, 255, 255); stroke-opacity: 1; stroke-width: 1px;"/></g><g class="y"><path class="ygrid crisp" transform="translate(0,181.48)" d="M39,0h406" style="stroke: rgb(255, 255, 255); stroke-opacity: 1; stroke-width: 1px;"/><path class="ygrid crisp" transform="translate(0,147.76999999999998)" d="M39,0h406" style="stroke: rgb(255, 255, 255); stroke-opacity: 1; stroke-width: 1px;"/><path class="ygrid crisp" transform="translate(0,114.06)" d="M39,0h406" style="stroke: rgb(255, 255, 255); stroke-opacity: 1; stroke-width: 1px;"/><path class="ygrid crisp" transform="translate(0,80.35)" d="M39,0h406" style="stroke: rgb(255, 255, 255); stroke-opacity: 1; stroke-width: 1px;"/><path class="ygrid crisp" transform="translate(0,46.64)" d="M39,0h406" style="stroke: rgb(255, 255, 255); stroke-opacity: 1; stroke-width: 1px;"/></g></g><g class="zerolinelayer"><path class="xzl zl crisp" transform="translate(39,0)" d="M0,33v150" style="stroke: rgb(255, 255, 255); stroke-opacity: 1; stroke-width: 2px;"/></g><path class="xlines-below"/><path class="ylines-below"/><g class="overlines-below"/><g class="xaxislayer-below"/><g class="yaxislayer-below"/><g class="overaxes-below"/><g class="plot" transform="translate(39,33)" clip-path="url(#clipc44a61xyplot)"><g class="scatterlayer mlayer"><g class="trace scatter tracef48ab9" style="stroke-miterlimit: 2; opacity: 0.8;"><g class="fills"/><g class="errorbars"/><g class="lines"><path class="js-line" d="M0,133.31L0.65,133.35L1.3,122.3L1.95,128.4L2.6,121.55L3.25,123.33L3.9,127.57L4.55,116.35L5.2,118.66L6.5,112.64L7.15,114.28L7.8,105.7L8.44,113.37L9.09,107.99L9.74,110.55L12.34,101.32L12.99,109.63L13.64,102.36L14.29,105.37L15.59,96.52L16.24,104.79L16.89,98.56L17.54,101.79L18.19,102.48L18.84,101.5L19.49,101.47L20.14,98.65L20.79,96.64L21.44,92.11L22.74,98.06L23.39,95.87L24.68,93.12L25.33,86.37L25.98,94.56L26.63,89.82L27.28,92.4L27.93,92L28.58,91.07L29.23,92.21L29.88,91.26L30.53,94.5L31.18,89.62L31.83,91.29L32.48,89.31L33.13,87.67L33.78,89.93L34.43,88.75L35.08,91.41L36.38,91.02L37.03,91.47L38.33,88.77L38.98,88.71L40.28,87.66L40.6,59.01L41.9,54.91L42.55,51.8L44.5,46.42L45.15,51.58L45.8,48.49L46.45,50.22L47.1,51.94L47.75,44.9L48.4,40.33L49.04,47L51.64,40.81L52.29,42.76L52.94,41.7L53.59,44.3L54.24,42.86L54.89,43.65L55.54,39.76L56.19,44.17L56.84,43.48L57.49,41.67L58.14,44.34L58.79,40.76L59.44,40.89L60.09,39.96L60.74,39.84L61.39,40.56L62.04,40.72L62.69,38.04L63.34,36.04L63.99,38.14L64.64,37L65.28,40.1L65.93,36.05L66.58,37.06L67.23,36.81L67.88,39.42L69.18,35.16L69.83,31.66L70.48,31.21L71.13,33.15L71.78,32.55L72.43,36.33L73.73,34.46L74.38,33.22L75.68,35.63L76.33,33.58L76.98,35.97L77.63,35.51L78.28,34.45L78.93,33.02L79.58,33.33L80.23,34.8L80.88,35.27L81.2,59.72L82.5,47.04L83.15,45.48L84.45,36.83L85.1,37.13L86.4,34.71L87.05,35.16L87.7,29.98L88.35,33.27L89,33.1L89.64,29.79L90.29,31.56L90.94,36.98L91.59,36.34L92.24,34.64L92.89,37.4L93.54,33.91L94.19,27.83L94.84,32.23L95.49,33.09L96.14,31.93L97.44,29L98.09,31.52L98.74,30.11L99.39,25.72L100.04,29.1L100.69,28.55L101.34,28.78L101.99,26.6L102.64,29.47L103.29,33.31L103.94,30.53L104.59,27.02L105.24,27.35L105.88,27.83L106.53,26.33L107.18,29.32L107.83,28.67L108.48,30.15L109.78,26.07L110.43,27.8L111.73,28.47L112.38,25.64L113.03,28.22L113.68,25.67L114.33,25.74L114.98,24.02L115.63,27.46L116.28,26.11L116.93,25.91L117.58,26.68L118.23,26.42L118.88,27.25L120.83,24.6L121.48,24.74L121.8,56.57L122.45,44.63L123.1,39.05L123.75,41.96L125.05,29.69L125.7,34.1L126.35,32.41L127,33.83L127.65,37.64L128.3,34.93L129.6,27.34L130.24,31.96L130.89,32.72L131.54,25.88L132.19,29.54L132.84,27.27L134.14,30.11L134.79,30.25L136.74,32.24L137.39,28.77L138.69,27.62L139.34,24.08L140.64,30.99L141.29,30.02L141.94,26.09L142.59,26.36L143.24,24.88L143.89,21.85L144.54,22.29L145.19,23.64L145.84,20.82L146.48,22.14L148.43,22.06L149.08,24.46L149.73,22.93L150.38,24.64L151.03,25.01L151.68,22.8L152.33,23.89L152.98,22.75L153.63,24.35L154.28,22.82L154.93,21.17L155.58,24.79L156.88,24.42L157.53,21.89L158.83,22.2L159.48,22.52L160.13,22.61L160.78,21.75L162.08,21.88L162.4,46.29L164.35,29.04L165,28.42L165.65,26.33L166.3,28.35L166.95,27.61L167.6,32.16L168.9,26.94L169.55,32.9L170.2,33.44L170.84,30.42L173.44,25.91L174.09,27.23L174.74,30.18L175.39,28.53L176.04,31.07L176.69,30.31L177.99,26.23L178.64,27.48L179.29,28.43L179.94,24.6L180.59,28.47L181.24,27.29L181.89,24.6L182.54,24.76L183.19,23.21L183.84,21.05L184.49,22.12L185.79,20.3L186.44,19.61L187.08,22.51L187.73,22.12L188.38,24.84L189.68,21.77L190.33,22.16L190.98,23.76L191.63,22.86L193.58,27.1L194.23,21.17L196.18,22.57L196.83,22.16L197.48,19.11L198.13,21.68L200.73,18.29L201.38,19.12L202.68,18.91L203,41.64L203.65,36.13L204.3,36.5L204.95,33L206.25,30.54L206.9,25.54L208.2,31.34L208.85,27.67L209.5,25.82L210.15,28.7L210.8,23.97L211.44,28.95L212.09,25.46L212.74,25.96L213.39,28.76L214.04,27.69L214.69,24.2L215.34,22.15L215.99,22.69L217.29,25.72L217.94,24.48L218.59,22.42L219.24,23.66L220.54,19.72L221.19,21.35L221.84,23.6L222.49,22.85L223.79,18.57L224.44,20.93L225.09,18.22L225.74,20.2L226.39,24.35L227.04,22.81L227.68,21.64L228.33,18.31L228.98,18.45L229.63,16.78L230.28,16.82L230.93,19.2L232.23,17.86L232.88,20L234.18,18.42L234.83,19.2L235.48,20.03L236.13,19L236.78,18.62L237.43,16.82L238.08,17.98L238.73,17.36L239.38,19.84L240.03,18.29L241.33,17.52L241.98,18.21L243.28,18.31L243.6,32.66L244.9,25.18L245.55,26.18L246.85,21.29L247.5,24.63L248.15,24.85L248.8,21.29L250.1,24.46L250.75,25.13L252.69,19.95L253.34,23.69L253.99,17.42L254.64,19.54L255.29,14.75L255.94,17.94L256.59,19.89L257.24,19.2L258.54,26.73L259.19,28.24L259.84,26.44L260.49,20.64L261.14,20.57L261.79,18.58L262.44,17.58L263.09,18.66L264.39,22.81L265.04,19.26L265.69,24.61L266.34,20.4L266.99,17.93L267.64,22.44L268.28,16.87L268.93,20.5L270.23,18.45L270.88,19.13L271.53,16.04L272.18,16.82L272.83,16.62L273.48,17.94L274.13,17.67L274.78,18.23L278.03,14.37L278.68,15.88L279.33,14.63L279.98,15.06L281.28,16.18L281.93,15.88L282.58,15.47L283.23,16.12L283.88,15.28L284.2,42.58L286.8,24.8L287.45,21.7L288.1,22.47L288.75,25.49L290.05,21.95L290.7,23.91L292,26.27L292.64,21.33L293.29,28.16L293.94,25.8L295.89,20.16L296.54,22.89L297.84,17.12L298.49,21.93L299.14,18.27L299.79,24.05L302.39,21.24L303.04,18.19L304.34,22.62L304.99,21.77L306.29,18.19L306.94,16.89L308.24,18.46L308.88,16.78L309.53,16.89L310.18,18.56L311.48,18.77L312.13,16.18L312.78,18.74L313.43,17.3L315.38,15.58L316.03,12.81L317.33,14.01L317.98,13.67L319.28,14.5L319.93,13.49L321.23,12.13L321.88,12.9L323.83,13.56L324.48,13.49L324.8,25.75L325.45,19.39L326.1,19.02L326.75,17.14L327.4,21.42L328.05,17.43L328.7,18.58L329.35,15.42L330.65,20.61L331.3,17.99L331.95,15.73L332.6,20.42L333.89,24.03L334.54,18.54L335.84,23.56L336.49,19.82L337.14,18.5L337.79,15.42L338.44,19.88L339.09,18.23L340.39,19.99L341.04,17.51L341.69,18.12L342.34,14.18L342.99,19.11L343.64,16.12L344.29,19.1L344.94,18.86L345.59,13.84L346.24,16.11L346.89,14.67L347.54,13.28L348.19,14.15L348.84,16.56L349.48,14.12L350.13,13.86L350.78,11.42L352.08,11.19L352.73,10.4L354.03,15.1L354.68,15.7L355.33,14.01L355.98,14.88L356.63,16.7L357.28,14.31L359.23,12.8L359.88,15.23L360.53,17.09L361.18,16.45L363.78,15.44L364.43,15.87L365.08,15.36L365.4,32.16L366.05,24L366.7,31.56L368,24.73L368.65,24.21L369.95,26.99L370.6,21.42L371.25,23.33L371.9,22.64L372.55,21.48L373.2,23.48L373.84,19.13L374.49,22.76L375.79,22.73L376.44,20.69L377.09,22.65L377.74,18.21L379.04,17.8L379.69,19.65L380.34,17.26L380.99,18.67L382.94,16.26L383.59,17.63L384.89,15.76L385.54,18.07L386.84,18.77L387.49,17.88L388.14,15.82L388.79,16.63L389.44,15.75L390.08,18.11L390.73,18.74L391.38,12.78L392.68,14.12L393.33,14.67L393.98,12.97L394.63,13.57L395.28,15.52L395.93,14.24L396.58,14.69L397.23,13.68L397.88,12.37L398.53,12.83L399.18,13.58L399.83,16.49L400.48,13.69L401.13,15.02L403.08,12.58L403.73,13.14L405.03,12.7L405.68,13.33L406,13.43" style="vector-effect: non-scaling-stroke; fill: none; stroke: rgb(65, 105, 225); stroke-opacity: 1; stroke-width: 2px; opacity: 1;"/></g><g class="points"/><g class="text"/></g><g class="trace scatter tracee73d50" style="stroke-miterlimit: 2; opacity: 0.8;"><g class="fills"/><g class="errorbars"/><g class="lines"><path class="js-line" d="M0,133.31L1.3,125.59L1.95,128.21L3.25,116.85L3.9,117.28L4.55,113.39L5.2,115.51L5.85,119.62L6.5,108.2L7.15,117.6L7.8,107.35L8.44,104.76L9.09,110.28L9.74,107.99L10.39,110.88L11.69,101.79L12.34,103.97L12.99,104.07L13.64,109.43L14.29,102.54L14.94,104.19L15.59,104.38L16.24,97.68L16.89,100.45L17.54,94.28L18.19,95.83L18.84,100.76L19.49,95.36L20.14,99.26L20.79,94.72L21.44,96.74L22.74,91.98L23.39,90.24L24.04,95.48L24.68,88.28L25.98,95.16L26.63,90.4L27.93,87.89L28.58,88.09L29.23,88L29.88,89.35L30.53,91.87L31.18,89.5L32.48,88.53L33.13,84.93L33.78,84.69L34.43,85.86L35.73,84.26L36.38,84.47L38.33,82.69L38.98,83.21L40.28,83.23L40.6,81.71L41.9,68.73L42.55,50.54L43.2,54.59L43.85,51.68L44.5,51.73L45.15,53.27L45.8,52.48L46.45,46.89L47.1,48.78L47.75,44.62L48.4,49.74L49.04,44.13L49.69,40.82L50.34,48.45L51.64,42.67L52.29,43.09L52.94,44.63L53.59,42.05L54.24,49.48L54.89,44.78L55.54,49.02L56.19,38.45L56.84,43.39L57.49,41.84L58.14,37.87L58.79,38.1L59.44,39.96L60.09,40.47L60.74,39.41L61.39,36.89L62.04,41.5L63.34,37.01L63.99,36.83L64.64,41.04L65.28,40.27L65.93,36.43L67.23,40.08L67.88,37.07L68.53,35.86L69.18,37.25L69.83,36.4L70.48,30.35L71.78,35.09L72.43,33.5L73.08,31.51L73.73,32.83L74.38,32.3L75.03,35.92L75.68,33.59L76.33,37.49L77.63,32.71L78.28,32.32L79.58,29.96L80.23,32.2L81.2,30.95L81.85,38.25L82.5,31.24L83.15,32.24L83.8,32.1L84.45,33.05L85.1,35.64L85.75,39.17L86.4,36.36L87.7,39.21L88.35,32.66L89,33.96L89.64,32.38L90.94,36.97L91.59,30.12L92.24,28.7L92.89,30.26L94.84,35.23L95.49,33.62L96.14,32.2L96.79,34.72L98.09,30.71L98.74,30.07L99.39,28.74L100.04,30.75L100.69,33.61L101.34,27.44L101.99,27.69L102.64,21.84L103.29,30.85L103.94,29.33L104.59,28.74L105.24,25.98L105.88,25.4L106.53,27.67L107.18,26.47L107.83,28.53L109.78,24.21L110.43,25.3L111.08,26.06L111.73,25.38L112.38,26.12L113.03,28L114.33,24.71L114.98,25.69L117.58,24.01L118.23,24.23L118.88,26.01L119.53,24.21L120.83,26.14L121.48,26.3L121.8,26.26L122.45,27.48L123.75,31.3L124.4,28L125.05,31.65L125.7,25.53L127,31.71L127.65,28.14L128.3,27.77L128.95,29.76L129.6,26.32L130.24,26.68L130.89,24.68L131.54,32.16L132.19,29.85L133.49,20.74L134.14,25.2L134.79,21.69L135.44,23.04L136.09,23.25L136.74,25.86L137.39,20.95L138.04,24.41L138.69,21.74L139.34,28.84L139.99,22.6L140.64,24.18L141.29,21.35L141.94,22.99L142.59,22.76L143.24,21.48L145.19,19.57L145.84,21.89L147.13,19.49L147.78,24.52L148.43,22.26L149.08,23.02L149.73,22.28L150.38,23.11L151.03,20.21L151.68,23.88L153.63,18.51L154.28,20.69L154.93,19.72L155.58,20.94L156.23,20.64L156.88,17.69L157.53,18.56L158.18,16.28L159.48,18.21L160.13,16.56L162.4,17.44L163.05,19.13L164.35,21.19L165,23.88L165.65,19.36L166.3,22.62L167.6,22.33L168.25,19.56L168.9,21.49L169.55,20.4L170.2,17.71L170.84,21.37L171.49,23.4L172.14,22.02L172.79,20.02L173.44,21.69L174.09,21.68L174.74,19.32L175.39,18.95L176.04,15.78L176.69,18.77L177.34,16.9L178.64,18.02L179.29,17.25L180.59,18.23L181.24,15.89L181.89,20.14L182.54,14.41L183.84,15.98L184.49,16.28L185.14,14.17L185.79,14.55L186.44,17.86L187.08,19.66L187.73,16.3L188.38,12.25L189.03,16.96L190.33,15.75L190.98,13.15L192.93,13.43L193.58,9.54L194.23,12.24L194.88,7.5L196.83,10.14L197.48,9.75L198.13,10.28L198.78,7.87L200.08,10.05L200.73,9.35L202.03,9.52L202.68,9.95L203,10.01L203.65,20.34L204.95,16.94L205.6,19.39L206.9,23.73L207.55,21.62L208.2,20.47L208.85,25.16L209.5,21.02L210.15,23.03L212.09,16.39L212.74,17.97L213.39,14.87L214.04,19.89L214.69,15.46L215.34,19.67L216.64,17.87L217.29,20.9L217.94,17.2L218.59,20.54L219.89,18.17L220.54,18.23L221.19,19.06L221.84,18.28L223.14,15.17L223.79,15.15L224.44,16.32L225.09,15.38L225.74,19.3L226.39,14.93L227.04,13.89L227.68,15.15L228.33,14.75L228.98,19.29L230.28,11.46L230.93,11.03L231.58,9.98L232.23,11.27L232.88,13.02L233.53,11.96L234.83,15.5L235.48,13.14L236.78,12.71L237.43,11.09L238.73,10L239.38,9.89L240.03,8.74L240.68,10.5L243.6,8.53L244.25,17.57L244.9,15.07L245.55,16.12L246.2,14.44L246.85,19.1L247.5,19.68L248.15,22L248.8,25.23L249.45,24.02L250.75,16.9L251.4,20.25L252.04,19.07L252.69,22.33L253.34,21.23L253.99,23.86L255.29,19.94L255.94,20.07L256.59,18.78L257.24,23.59L258.54,17.71L259.19,25.9L259.84,20.61L260.49,21.88L261.14,20.44L261.79,23.73L263.74,18.64L264.39,22.07L265.04,18.54L265.69,21.24L268.28,17.06L268.93,18.07L270.23,17.36L270.88,20.15L271.53,17.1L272.18,18.46L274.13,17.93L274.78,18.09L276.08,17.15L276.73,15.29L277.38,17.5L278.03,15.76L279.33,16.33L279.98,14.01L281.93,14.87L282.58,14.04L284.2,14.86L284.85,13.76L285.5,14.95L286.15,18.46L286.8,16.47L287.45,21.06L288.75,20.85L289.4,17.29L290.05,20.98L290.7,16.54L293.29,25.32L293.94,21.54L294.59,21.77L295.24,22.86L295.89,19.47L296.54,20.61L297.84,19.58L298.49,18.83L299.14,16.41L299.79,18.58L300.44,20.96L301.09,17.83L302.39,19.84L303.04,19.97L304.34,17.31L304.99,15.52L305.64,16.93L306.29,16.55L306.94,15.83L308.24,16.97L308.88,16.51L309.53,18.61L310.18,14.38L310.83,14.42L311.48,16.18L312.13,17.83L312.78,15.74L313.43,15.71L314.08,14.9L316.03,17.04L316.68,15.54L317.98,17.34L318.63,16.76L321.23,14.51L321.88,14.21L323.18,14.5L323.83,14.59L325.45,14.24L326.1,14.59L328.05,18.68L328.7,16.83L329.35,15.25L330,18.99L330.65,19.27L331.3,20.8L331.95,20.34L332.6,18.9L333.89,23.32L334.54,17.17L335.19,21.75L335.84,19.39L336.49,19.72L337.14,15.67L338.44,18.08L339.09,19.55L339.74,22.12L340.39,19.31L341.04,23.87L341.69,21.29L342.99,17.15L343.64,19.95L344.94,14.92L345.59,14.74L347.54,15.04L348.19,16.2L348.84,14.76L349.48,15.71L350.78,13.07L351.43,14.42L352.08,14.02L352.73,16.3L353.38,12.17L354.03,14.88L354.68,11.86L355.33,12.2L355.98,11.42L356.63,14.26L357.28,13.41L357.93,13.29L358.58,12.37L359.23,14.4L359.88,12.41L361.18,13.75L361.83,12.35L363.13,12.97L363.78,13.37L366.05,13.58L366.7,17.12L368,19.96L368.65,15.66L369.3,16.9L369.95,20.17L371.25,15.2L371.9,19.3L372.55,15.38L373.2,19.85L374.49,17.07L375.14,17.28L375.79,21.21L376.44,18.61L377.09,16.24L377.74,19.16L378.39,16.88L379.04,18.42L380.34,21.15L380.99,20.12L381.64,17.9L382.29,19.16L382.94,18.21L383.59,19.21L384.24,22.19L384.89,17.77L386.19,13.88L386.84,15.13L387.49,15.7L388.14,18.01L388.79,20.03L389.44,18.92L390.08,18.02L390.73,15.15L391.38,17.38L392.03,15.51L393.98,19.92L394.63,18.34L397.88,17.61L398.53,19.44L399.83,18.04L400.48,17.92L401.13,18.21L401.78,16.28L403.08,17.51L403.73,15.67L405.03,18.29L405.68,17.29L406,17.48" style="vector-effect: non-scaling-stroke; fill: none; stroke: rgb(255, 127, 80); stroke-opacity: 1; stroke-width: 2px; opacity: 1;"/></g><g class="points"/><g class="text"/></g><g class="trace scatter trace86ae12" style="stroke-miterlimit: 2; opacity: 0.8;"><g class="fills"/><g class="errorbars"/><g class="lines"><path class="js-line" d="M0,119.12L0.65,121.9L1.3,121.09L2.6,125.91L3.25,125.69L3.9,113.51L4.55,110.71L5.2,112.08L6.5,113.76L7.15,112.22L7.8,115.54L8.44,111.87L9.09,114.24L9.74,110.69L10.39,119.1L11.04,115.78L11.69,115.34L12.34,106.13L12.99,106.59L13.64,111.68L14.29,109.87L14.94,103.06L16.24,101.16L16.89,106.96L17.54,108.53L18.19,101.69L18.84,101.48L19.49,96.11L20.79,101.7L21.44,96.75L22.74,100.38L23.39,95.15L25.33,100.68L25.98,98.7L27.28,94.11L27.93,91.46L29.23,97.06L29.88,95.14L30.53,89.47L31.18,92.99L31.83,93.44L32.48,92.36L33.13,91.73L33.78,89.81L34.43,87.63L35.08,89.44L36.38,86.89L37.03,92.71L38.33,91.01L38.98,93.24L40.6,89.14L41.25,84.64L41.9,79.91L42.55,67.14L43.2,68.33L43.85,61.39L44.5,64.87L45.15,61.66L45.8,61.66L46.45,56.72L47.1,58.91L47.75,64.15L48.4,57.23L49.04,58.8L49.69,58.15L50.34,55.54L50.99,53.35L51.64,55.04L52.29,63.66L52.94,51.98L53.59,51.92L54.24,55.44L55.54,57.09L56.19,54.83L56.84,52.84L57.49,59.31L58.14,56.66L58.79,59.83L60.09,56.63L60.74,58.15L62.69,53.33L63.34,52.74L64.64,53.2L65.28,51.69L65.93,57.05L66.58,54.28L67.23,54.38L67.88,53.27L68.53,52.19L69.18,47.18L70.48,55.43L71.13,51.56L71.78,47.87L72.43,48.94L73.08,46.04L73.73,48.64L74.38,50.45L75.03,46.48L75.68,46.68L76.33,48.85L78.28,43.37L78.93,46.08L79.58,44.95L80.23,47.22L80.88,47.86L81.2,47.45L81.85,47.03L82.5,49.45L83.15,47.24L83.8,50.97L84.45,50.05L85.1,43.33L85.75,50.73L86.4,41.22L87.05,46.48L87.7,45.77L88.35,50.49L90.29,42.76L90.94,47.69L91.59,46.08L92.24,47.48L92.89,47.86L93.54,40.52L94.19,40.95L94.84,45.43L95.49,47.73L96.14,46.14L98.09,39.79L98.74,39.72L99.39,44.38L100.04,40.67L100.69,45L101.34,44.45L101.99,45.1L103.29,37.18L103.94,40.24L104.59,38.2L105.24,44.2L105.88,44.14L106.53,39.36L107.18,37.76L107.83,39.09L109.13,40.1L109.78,38.43L110.43,37.42L111.08,40.26L111.73,39.6L112.38,35.91L114.33,42.85L114.98,39.25L116.28,40.23L116.93,40.87L118.23,38.92L118.88,41.36" style="vector-effect: non-scaling-stroke; fill: none; stroke: rgb(60, 179, 113); stroke-opacity: 1; stroke-width: 2px; opacity: 1;"/></g><g class="points"/><g class="text"/></g><g class="trace scatter trace44566c" style="stroke-miterlimit: 2; opacity: 0.8;"><g class="fills"/><g class="errorbars"/><g class="lines"><path class="js-line" d="M0,142.5L406,142.5" style="vector-effect: non-scaling-stroke; fill: none; stroke: rgb(112, 128, 144); stroke-opacity: 1; stroke-width: 2px; opacity: 1;"/></g><g class="points"/><g class="text"/></g></g></g><g class="overplot"/><path class="xlines-above crisp" d="M0,0" style="fill: none;"/><path class="ylines-above crisp" d="M0,0" style="fill: none;"/><g class="overlines-above"/><g class="xaxislayer-above"><g class="xtick"><text text-anchor="middle" x="0" y="196" transform="translate(39,0)" style="font-family: serif; font-size: 12px; fill: rgb(42, 63, 95); fill-opacity: 1; white-space: pre; opacity: 1;">0</text></g><g class="xtick"><text text-anchor="middle" x="0" y="196" style="font-family: serif; font-size: 12px; fill: rgb(42, 63, 95); fill-opacity: 1; white-space: pre; opacity: 1;" transform="translate(168.92,0)">2M</text></g><g class="xtick"><text text-anchor="middle" x="0" y="196" style="font-family: serif; font-size: 12px; fill: rgb(42, 63, 95); fill-opacity: 1; white-space: pre; opacity: 1;" transform="translate(298.84,0)">4M</text></g><g class="xtick"><text text-anchor="middle" x="0" y="196" style="font-family: serif; font-size: 12px; fill: rgb(42, 63, 95); fill-opacity: 1; white-space: pre; opacity: 1;" transform="translate(428.76,0)">6M</text></g></g><g class="yaxislayer-above"><g class="ytick"><text text-anchor="end" x="38" y="4.199999999999999" transform="translate(0,181.48)" style="font-family: serif; font-size: 12px; fill: rgb(42, 63, 95); fill-opacity: 1; white-space: pre; opacity: 1;">75</text></g><g class="ytick"><text text-anchor="end" x="38" y="4.199999999999999" style="font-family: serif; font-size: 12px; fill: rgb(42, 63, 95); fill-opacity: 1; white-space: pre; opacity: 1;" transform="translate(0,147.76999999999998)">80</text></g><g class="ytick"><text text-anchor="end" x="38" y="4.199999999999999" style="font-family: serif; font-size: 12px; fill: rgb(42, 63, 95); fill-opacity: 1; white-space: pre; opacity: 1;" transform="translate(0,114.06)">85</text></g><g class="ytick"><text text-anchor="end" x="38" y="4.199999999999999" style="font-family: serif; font-size: 12px; fill: rgb(42, 63, 95); fill-opacity: 1; white-space: pre; opacity: 1;" transform="translate(0,80.35)">90</text></g><g class="ytick"><text text-anchor="end" x="38" y="4.199999999999999" style="font-family: serif; font-size: 12px; fill: rgb(42, 63, 95); fill-opacity: 1; white-space: pre; opacity: 1;" transform="translate(0,46.64)">95</text></g></g><g class="overaxes-above"/></g></g><g class="polarlayer"/><g class="smithlayer"/><g class="ternarylayer"/><g class="geolayer"/><g class="funnelarealayer"/><g class="pielayer"/><g class="iciclelayer"/><g class="treemaplayer"/><g class="sunburstlayer"/><g class="glimages"/><defs id="topdefs-c44a61"><g class="clips"/><clipPath id="legendc44a61"><rect width="360" height="29" x="0" y="0"/></clipPath></defs><g class="layer-above"><g class="imagelayer"/><g class="shapelayer"/></g><g class="infolayer"><g class="legend" pointer-events="all" transform="translate(85,0.9999999999999964)"><rect class="bg" shape-rendering="crispEdges" style="stroke: rgb(68, 68, 68); stroke-opacity: 1; fill: rgb(255, 255, 255); fill-opacity: 1; stroke-width: 0px;" width="360" height="29" x="0" y="0"/><g class="scrollbox" transform="" clip-path="url(#legendc44a61)"><g class="groups" transform=""><g class="traces" transform="translate(0,14.5)" style="opacity: 1;"><text class="legendtext" text-anchor="start" x="40" y="4.680000000000001" style="font-family: serif; font-size: 12px; fill: rgb(42, 63, 95); fill-opacity: 1; white-space: pre;">Exp. 5</text><g class="layers" style="opacity: 0.8;"><g class="legendfill"/><g class="legendlines"><path class="js-line" d="M5,0h30" style="fill: none; stroke: rgb(65, 105, 225); stroke-opacity: 1; stroke-width: 2px;"/></g><g class="legendsymbols"><g class="legendpoints"/></g></g><rect class="legendtoggle" x="0" y="-9.5" width="73.84375" height="19" style="fill: rgb(0, 0, 0); fill-opacity: 0;"/></g></g><g class="groups" transform="translate(76.34375,0)"><g class="traces" transform="translate(0,14.5)" style="opacity: 1;"><text class="legendtext" text-anchor="start" x="40" y="4.680000000000001" style="font-family: serif; font-size: 12px; fill: rgb(42, 63, 95); fill-opacity: 1; white-space: pre;">Exp. 4</text><g class="layers" style="opacity: 0.8;"><g class="legendfill"/><g class="legendlines"><path class="js-line" d="M5,0h30" style="fill: none; stroke: rgb(255, 127, 80); stroke-opacity: 1; stroke-width: 2px;"/></g><g class="legendsymbols"><g class="legendpoints"/></g></g><rect class="legendtoggle" x="0" y="-9.5" width="73.84375" height="19" style="fill: rgb(0, 0, 0); fill-opacity: 0;"/></g></g><g class="groups" transform="translate(152.6875,0)"><g class="traces" transform="translate(0,14.5)" style="opacity: 1;"><text class="legendtext" text-anchor="start" x="40" y="4.680000000000001" style="font-family: serif; font-size: 12px; fill: rgb(42, 63, 95); fill-opacity: 1; white-space: pre;">Exp. 6</text><g class="layers" style="opacity: 0.8;"><g class="legendfill"/><g class="legendlines"><path class="js-line" d="M5,0h30" style="fill: none; stroke: rgb(60, 179, 113); stroke-opacity: 1; stroke-width: 2px;"/></g><g class="legendsymbols"><g class="legendpoints"/></g></g><rect class="legendtoggle" x="0" y="-9.5" width="73.84375" height="19" style="fill: rgb(0, 0, 0); fill-opacity: 0;"/></g></g><g class="groups" transform="translate(229.03125,0)"><g class="traces" transform="translate(0,14.5)" style="opacity: 1;"><text class="legendtext" text-anchor="start" x="40" y="4.680000000000001" style="font-family: serif; font-size: 12px; fill: rgb(42, 63, 95); fill-opacity: 1; white-space: pre;">Baseline Random</text><g class="layers" style="opacity: 0.8;"><g class="legendfill"/><g class="legendlines"><path class="js-line" d="M5,0h30" style="fill: none; stroke: rgb(112, 128, 144); stroke-opacity: 1; stroke-width: 2px;"/></g><g class="legendsymbols"><g class="legendpoints"/></g></g><rect class="legendtoggle" x="0" y="-9.5" width="128.15625" height="19" style="fill: rgb(0, 0, 0); fill-opacity: 0;"/></g></g></g><rect class="scrollbar" rx="20" ry="3" width="0" height="0" style="fill: rgb(128, 139, 164); fill-opacity: 1;" x="0" y="0"/></g><g class="g-gtitle"/><g class="g-xtitle" transform="translate(0,-1.8000000000000114)"><text class="xtitle" x="242" y="223.8" text-anchor="middle" style="font-family: serif; font-size: 14px; fill: rgb(42, 63, 95); opacity: 1; font-weight: normal; white-space: pre;">Step</text></g><g class="g-ytitle" transform="translate(10.7998046875,0)"><text class="ytitle" transform="rotate(-90,1.2000000000000028,108)" x="1.2000000000000028" y="108" text-anchor="middle" style="font-family: serif; font-size: 14px; fill: rgb(42, 63, 95); opacity: 1; font-weight: normal; white-space: pre;">Reward</text></g></g></svg>