<svg class="main-svg" xmlns="http://www.w3.org/2000/svg" xmlns:xlink="http://www.w3.org/1999/xlink" width="450" height="225" style="" viewBox="0 0 450 225"><rect x="0" y="0" width="450" height="225" style="fill: rgb(255, 255, 255); fill-opacity: 1;"/><defs id="defs-35fc99"><g class="clips"><clipPath id="clip35fc99xyplot" class="plotclip"><rect width="406" height="150"/></clipPath><clipPath class="axesclip" id="clip35fc99x"><rect x="39" y="0" width="406" height="225"/></clipPath><clipPath class="axesclip" id="clip35fc99y"><rect x="0" y="33" width="450" height="150"/></clipPath><clipPath class="axesclip" id="clip35fc99xy"><rect x="39" y="33" width="406" height="150"/></clipPath></g><g class="gradients"/><g class="patterns"/></defs><g class="bglayer"><rect class="bg" x="39" y="33" width="406" height="150" style="fill: rgb(229, 236, 246); fill-opacity: 1; stroke-width: 0;"/></g><g class="layer-below"><g class="imagelayer"/><g class="shapelayer"/></g><g class="cartesianlayer"><g class="subplot xy"><g class="layer-subplot"><g class="shapelayer"/><g class="imagelayer"/></g><g class="gridlayer"><g class="x"><path class="xgrid crisp" transform="translate(168.92,0)" d="M0,33v150" style="stroke: rgb(255, 255, 255); stroke-opacity: 1; stroke-width: 1px;"/><path class="xgrid crisp" transform="translate(298.84,0)" d="M0,33v150" style="stroke: rgb(255, 255, 255); stroke-opacity: 1; stroke-width: 1px;"/><path class="xgrid crisp" transform="translate(428.76,0)" d="M0,33v150" style="stroke: rgb(255, 255, 255); stroke-opacity: 1; stroke-width: 1px;"/></g><g class="y"><path class="ygrid crisp" transform="translate(0,181.82)" d="M39,0h406" style="stroke: rgb(255, 255, 255); stroke-opacity: 1; stroke-width: 1px;"/><path class="ygrid crisp" transform="translate(0,146.17000000000002)" d="M39,0h406" style="stroke: rgb(255, 255, 255); stroke-opacity: 1; stroke-width: 1px;"/><path class="ygrid crisp" transform="translate(0,110.52)" d="M39,0h406" style="stroke: rgb(255, 255, 255); stroke-opacity: 1; stroke-width: 1px;"/><path class="ygrid crisp" transform="translate(0,74.87)" d="M39,0h406" style="stroke: rgb(255, 255, 255); stroke-opacity: 1; stroke-width: 1px;"/><path class="ygrid crisp" transform="translate(0,39.22)" d="M39,0h406" style="stroke: rgb(255, 255, 255); stroke-opacity: 1; stroke-width: 1px;"/></g></g><g class="zerolinelayer"><path class="xzl zl crisp" transform="translate(39,0)" d="M0,33v150" style="stroke: rgb(255, 255, 255); stroke-opacity: 1; stroke-width: 2px;"/></g><path class="xlines-below"/><path class="ylines-below"/><g class="overlines-below"/><g class="xaxislayer-below"/><g class="yaxislayer-below"/><g class="overaxes-below"/><g class="plot" transform="translate(39,33)" clip-path="url(#clip35fc99xyplot)"><g class="scatterlayer mlayer"><g class="trace scatter tracedfca1d" style="stroke-miterlimit: 2; opacity: 0.8;"><g class="fills"/><g class="errorbars"/><g class="lines"><path class="js-line" d="M0,134.63L2.6,125.2L3.9,119.61L5.2,123.69L6.5,118.41L7.8,116.92L9.09,117.58L10.39,117.39L11.69,120.25L12.99,120.15L14.29,117.15L15.59,111.33L16.89,114.91L18.19,114.68L19.49,109.9L20.79,100.41L22.09,116.58L23.39,107.22L24.68,104.44L25.98,107.33L27.28,102.65L28.58,105.25L29.88,109.6L31.18,100.96L32.48,105L35.08,102.49L36.38,106.8L37.68,95.1L38.98,100.7L40.28,102.41L41.57,102.7L42.87,93.47L44.17,96.45L45.47,98.67L46.77,90.86L48.07,92.27L49.37,96.38L50.67,99.02L51.97,97.21L53.27,94.23L54.57,88.06L55.87,93.87L57.16,89.5L58.46,91.45L59.76,96.38L61.06,100.9L62.36,89.91L63.66,85.06L64.96,85.75L66.26,85.36L67.56,86.04L68.86,87.74L70.16,84.35L71.46,91.42L72.76,88.18L74.05,84.03L75.35,84.51L76.65,87.57L77.95,85.17L79.25,86.37L80.55,83.04L81.85,85.72L83.15,86.34L84.45,90.79L85.75,90.26L87.05,88.22L88.35,88.32L89.64,81.92L90.94,89.25L92.24,89.13L93.54,91.83L96.14,83.93L97.44,90.6L98.74,90.74L100.04,87.04L101.34,91.77L102.64,87.71L103.94,84.15L105.24,84.91L107.83,90.65L109.13,84.19L110.43,86L111.73,80.89L113.03,83.7L114.33,84.25L115.63,86.04L116.93,82.83L118.23,85.3L119.53,82.99L122.12,93.06L123.42,87.94L124.72,83.41L126.02,86.02L127.32,86.73L128.62,85.3L129.92,88.15L131.22,83.97L132.52,87.82L133.82,83.64L135.12,84.16L136.42,86.98L137.72,83.44L139.01,86L140.31,83.58L141.61,83.46L142.91,80.87L144.21,81.78L146.81,82.2L148.11,84.5L149.41,85.5L150.71,79.82L152.01,82.64L153.31,81.45L154.6,79.47L155.9,79.85L157.2,79.66L158.5,82.59L161.1,76.22L162.4,76.87L163.7,77.66L165,81.08L166.3,79.29L167.6,79.67L168.9,76.65L170.2,82.12L171.49,76.91L172.79,81.19L175.39,80.85L176.69,75.62L177.99,81.87L179.29,80.16L181.89,76.9L183.19,80.7L184.49,80.01L185.79,81.55L187.08,81.99L188.38,77.23L190.98,81.12L192.28,78.07L193.58,79.82L194.88,79.74L196.18,78.2L197.48,78.25L198.78,79.78L200.08,78.27L201.38,78.14L202.68,80.38L205.27,80.2L206.57,75.16L207.87,75.42L209.17,74.07L210.47,77.1L211.77,76.45L213.07,80.95L214.37,78.98L215.67,77.38L216.97,78.78L218.27,79.93L219.56,77.39L222.16,81L223.46,78.57L224.76,81.75L226.06,80.97L227.36,79.48L228.66,81.29L229.96,83.96L231.26,77.4L232.56,82.42L233.86,79.32L235.16,80.06L236.45,75.19L239.05,76.33L240.35,75.65L241.65,75.67L242.95,71.93L244.25,71.31L245.55,74.37L246.85,74.64L248.15,77.27L249.45,76.78L250.75,77.92L252.04,78.64L253.34,77.31L254.64,71.83L255.94,70.95L257.24,72.82L258.54,72.16L259.84,73.86L261.14,70.79L262.44,71.62L263.74,74.37L265.04,73.1L266.34,73.7L267.64,77.93L268.93,76.43L271.53,71.99L272.83,77.9L274.13,74.75L275.43,74.62L276.73,75.55L278.03,72.07L279.33,73.32L280.63,69.03L283.23,73.84L284.52,73.68L285.82,74.74L287.12,74.71L288.42,78.44L289.72,70.6L292.32,74.09L293.62,70.61L294.92,66.42L296.22,68.75L297.52,68.85L298.82,65.67L301.41,71.47L302.71,69.93L304.01,74.07L305.31,68.98L306.61,70.72L307.91,69.45L309.21,73.97L310.51,71.25L311.81,73.59L313.11,68.11L314.41,69.8L315.71,68.42L317,67.04L318.3,68.22L319.6,66.74L320.9,67.55L323.5,68.35L324.8,70.24L326.1,71.04L327.4,68.69L330,72.28L331.3,70.3L332.6,68.9L333.89,71.72L335.19,70.76L336.49,65.56L339.09,69.86L340.39,67.97L341.69,67.14L342.99,68.33L344.29,69.02L345.59,68.25L346.89,70.89L348.19,69.87L349.48,68.76L350.78,72.18L352.08,69.92L353.38,70.55L354.68,72.2L355.98,71.24L357.28,71.88L358.58,70.24L359.88,71.79L361.18,69.6L362.48,70L363.78,69.49L366.37,72L367.67,72.08L372.87,67.87L374.17,69.48L375.47,68.13L376.77,68.95L378.07,70.52L379.37,69.21L380.67,70.19L381.96,69.7L383.26,68.92L384.56,69.51L385.86,70.02L387.16,69.56L389.76,69.94L391.06,70.52L393.66,69.16L394.96,69.66L396.26,71.1L397.56,69.91L398.85,70.54L400.15,70.09L401.45,70.57L402.75,70.12L405.35,70.06L406,70.47" style="vector-effect: non-scaling-stroke; fill: none; stroke: rgb(65, 105, 225); stroke-opacity: 1; stroke-width: 2px; opacity: 1;"/></g><g class="points"/><g class="text"/></g><g class="trace scatter trace2880c6" style="stroke-miterlimit: 2; opacity: 0.8;"><g class="fills"/><g class="errorbars"/><g class="lines"><path class="js-line" d="M0,86.81L2.6,69.94L3.9,74.19L5.2,67.38L6.5,66.22L10.39,60.94L11.69,61.42L12.99,63.74L14.29,59.09L15.59,55.73L16.89,55.84L18.19,60.03L19.49,59.85L20.79,58.68L22.09,56.23L23.39,56.22L24.68,60.34L25.98,56.03L27.28,56.01L28.58,45.91L29.88,49.6L31.18,49.77L32.48,54.94L35.08,50.9L36.38,50.53L37.68,55.68L38.98,49.77L40.28,50.09L41.57,45L42.87,53.63L44.17,49.11L45.47,48.48L46.77,52.09L48.07,49.09L49.37,54.07L50.67,47.78L51.97,53.19L53.27,49.96L54.57,49.08L55.87,46.2L57.16,47.11L58.46,44.18L59.76,45.52L61.06,44.83L62.36,45L63.66,43.4L64.96,45.46L66.26,46.33L67.56,45.05L68.86,47.07L70.16,50.76L71.46,47L72.76,46.54L74.05,47.15L75.35,42.28L76.65,45.49L77.95,46.4L79.25,43.34L80.55,45.66L81.85,46.5L83.15,41.85L84.45,43.82L85.75,44.33L87.05,39.79L88.35,38.81L89.64,39.75L90.94,38.96L92.24,36.25L93.54,41.18L96.14,41.84L97.44,44.37L100.04,39.09L101.34,43.21L103.94,36.21L105.24,38.27L106.53,44.16L107.83,36.99L110.43,39.28L111.73,38.4L113.03,36.47L114.33,38.72L116.93,40.72L118.23,42.62L119.53,47.39L120.83,41.52L122.12,40.61L123.42,45.14L124.72,37.03L126.02,40.06L127.32,37L128.62,39.5L131.22,43.09L132.52,40.29L133.82,34.59L135.12,40.11L136.42,40.03L137.72,42.79L139.01,40.32L140.31,41.11L141.61,39.83L142.91,41.14L144.21,36.16L145.51,38.14L146.81,33.18L148.11,37.1L149.41,37.79L150.71,36.06L152.01,36.78L153.31,44.3L154.6,41.2L155.9,35.7L157.2,35.61L158.5,29.33L159.8,34.96L161.1,35.22L162.4,34.29L163.7,28.68L166.3,34.21L167.6,31.57L168.9,35.29L170.2,35.44L171.49,34.52L172.79,35.21L174.09,35.29L175.39,34.34L177.99,39.78L179.29,39.76L180.59,37.54L181.89,32.59L183.19,39.72L184.49,36.23L185.79,35.71L187.08,38.59L188.38,37.35L189.68,34.27L190.98,39L192.28,31.11L193.58,31.71L194.88,31.31L196.18,30.71L197.48,31.46L198.78,28.36L200.08,27.27L201.38,24.56L202.68,31.86L203.97,33.99L205.27,26.49L206.57,32.33L207.87,34.69L210.47,29.46L211.77,30.59L213.07,31.56L214.37,35.06L215.67,31.23L216.97,33.56L218.27,33.95L219.56,30.6L220.86,33.05L222.16,32.23L223.46,35L224.76,33.26L226.06,31.6L227.36,33.32L229.96,29.58L231.26,30.9L232.56,31.71L233.86,24.83L236.45,28.9L237.75,32.9L240.35,32.26L241.65,30.74L242.95,30.78L244.25,33.05L245.55,31.41L246.85,27.89L248.15,30.02L249.45,26.84L250.75,32.06L252.04,30.09L253.34,29.43L254.64,32.76L255.94,31.18L257.24,28.37L259.84,30.84L261.14,29.13L262.44,24.61L263.74,29.79L266.34,29.87L267.64,30L268.93,27.61L270.23,27.06L271.53,32.13L272.83,27.24L275.43,30.16L276.73,33.75L278.03,29.4L279.33,29.83L281.93,33.72L283.23,28.8L287.12,27.2L288.42,29.31L289.72,28.49L291.02,34.24L292.32,29.8L293.62,31.51L296.22,26.47L297.52,27.24L298.82,28.82L300.12,28.88L301.41,27.17L302.71,28.93L304.01,30.97L305.31,25.94L307.91,30.19L309.21,30L310.51,33.13L311.81,27.74L317,31.95L318.3,30.5L319.6,31.64L320.9,30.47L322.2,30.86L323.5,29.45L327.4,31.83L328.7,28.69L330,30.84L331.3,27.66L333.89,30.64L335.19,28.06L336.49,28.14L337.79,26.72L339.09,25.4L340.39,27.17L341.69,27.88L342.99,27.04L345.59,27.02L346.89,28.41L348.19,26.01L349.48,26.63L352.08,26.38L353.38,24.11L354.68,24.47L355.98,28.73L357.28,27.46L358.58,30.28L359.88,27.26L361.18,29.93L362.48,28.83L363.78,26.71L366.37,26.73L367.67,25.67L368.97,29.53L370.27,27.25L371.57,28.16L372.87,27.53L374.17,27.76L375.47,29.88L379.37,25.7L380.67,26.52L381.96,26.19L383.26,27.17L384.56,25.98L385.86,26.68L387.16,24.35L388.46,24.86L389.76,23.72L391.06,24.58L392.36,25.61L393.66,24.19L394.96,25.44L396.26,24.47L397.56,24.45L398.85,25.31L401.45,24.28L402.75,25.03L406,23.89" style="vector-effect: non-scaling-stroke; fill: none; stroke: rgb(255, 127, 80); stroke-opacity: 1; stroke-width: 2px; opacity: 1;"/></g><g class="points"/><g class="text"/></g><g class="trace scatter trace73ddb3" style="stroke-miterlimit: 2; opacity: 0.8;"><g class="fills"/><g class="errorbars"/><g class="lines"><path class="js-line" d="M0,80.89L1.3,70.07L2.6,67.78L3.9,70.22L5.2,60.88L6.5,58.94L7.8,65.48L9.09,55.91L10.39,56.23L11.69,50.39L12.99,50.89L14.29,57.13L15.59,56.19L18.19,45.9L19.49,49.86L20.79,44.21L22.09,43.95L23.39,44.55L24.68,43.02L25.98,43.83L27.28,38.5L28.58,43.44L29.88,39.34L31.18,38.7L32.48,40.68L33.78,38.28L35.08,37.75L36.38,40.44L37.68,36.85L38.98,45.14L40.28,39.64L41.57,36.68L42.87,42.14L45.47,36.29L46.77,42.3L48.07,35.93L49.37,38.88L50.67,35.65L51.97,35.11L53.27,31.85L54.57,38.39L55.87,36.98L57.16,32.63L58.46,38.01L59.76,32.4L61.06,32.44L62.36,35.63L63.66,34.49L64.96,28.92L66.26,32.48L67.56,25.25L70.16,34.89L71.46,29.95L72.76,32.24L74.05,36.4L75.35,29.08L76.65,31.94L77.95,26.56L79.25,29.91L81.85,28.44L83.15,32.21L84.45,33.75L85.75,29.57L88.35,30.12L89.64,32.06L93.54,24.9L94.84,27.82L96.14,26.99L97.44,24.03L98.74,24.63L100.04,26.37L101.34,23.21L102.64,23.83L105.24,30.45L106.53,24.76L107.83,25.82L109.13,24.89L110.43,32.56L111.73,26.88L113.03,25.77L114.33,22.55L115.63,23.44L116.93,23.37L118.23,22.44L119.53,27.58L120.83,29.74L122.12,29.05L123.42,22.27L124.72,28.49L126.02,23.69L127.32,24.22L128.62,23.01L129.92,26L132.52,25.53L133.82,24.03L135.12,25.6L136.42,24.72L137.72,26.04L139.01,24.94L140.31,23.55L141.61,28.9L142.91,20.59L144.21,22.32L146.81,26.62L148.11,25.85L149.41,23.66L150.71,24.63L152.01,22.54L153.31,26.34L154.6,24.33L155.9,24.98L157.2,20.73L158.5,21.62L159.8,26.07L161.1,22.77L162.4,20.51L163.7,22.62L165,22.13L166.3,23.66L167.6,27.81L168.9,20.93L171.49,22.82L172.79,20.1L174.09,20.13L175.39,15.84L176.69,17.95L177.99,24.8L179.29,18.18L180.59,20.04L181.89,22.94L183.19,23.74L184.49,21.97L185.79,18.88L187.08,22.61L188.38,19.8L189.68,16.19L190.98,22.09L192.28,18.38L193.58,21.15L194.88,15.16L196.18,22.66L197.48,18.84L198.78,18.72L200.08,20.79L201.38,19.33L202.68,16.12L203.97,20.06L205.27,18.92L206.57,21.43L207.87,23.66L209.17,18.36L211.77,19.69L213.07,21.76L216.97,17.63L218.27,18.08L219.56,21.9L220.86,22.29L222.16,19.27L223.46,21.13L224.76,16.46L226.06,16.34L229.96,22.22L231.26,22.59L232.56,18.43L233.86,20.67L235.16,20.17L236.45,18.44L240.35,22.6L241.65,21L242.95,23.24L244.25,19.16L246.85,17.83L248.15,19.77L250.75,19.54L252.04,16.83L253.34,14.44L254.64,18.17L255.94,13.54L257.24,15.66L258.54,15.17L259.84,12.87L261.14,17.27L262.44,18.77L263.74,14.67L265.04,15.93L266.34,19.67L267.64,18.54L270.23,17.49L271.53,15.61L272.83,15.92L274.13,15.26L275.43,11.84L276.73,12.28L278.03,19.11L279.33,17.12L280.63,18.19L281.93,16.58L284.52,13.49L285.82,14.22L288.42,18.24L289.72,14.78L291.02,15.37L292.32,14.66L293.62,14.64L294.92,10.87L296.22,12.95L297.52,11.26L300.12,15.37L301.41,12.95L302.71,10.62L304.01,10.62L305.31,11.96L306.61,12.04L307.91,12.94L309.21,12.38L310.51,12.18L311.81,13.55L313.11,15.86L314.41,11.02L317,14.32L318.3,13.35L319.6,12.69L320.9,10.05L322.2,12.12L323.5,12.05L324.8,15.76L326.1,14.01L327.4,14.05L328.7,10.72L330,14.1L331.3,10.12L332.6,13.48L333.89,13.36L335.19,12.62L336.49,9.67L337.79,11.3L339.09,9.59L340.39,12L341.69,10.44L342.99,7.5L344.29,9.35L348.19,13.55L349.48,10.85L350.78,12.28L352.08,10.97L354.68,7.93L355.98,12.01L357.28,13.23L358.58,10.77L359.88,11.05L361.18,9.03L362.48,11.4L363.78,10.89L365.08,9.77L366.37,11.84L368.97,10.49L370.27,10.72L371.57,8.9L372.87,10.22L374.17,10.46L375.47,9.52L376.77,11.24L378.07,11.14L379.37,10.29L380.67,10.93L383.26,10.5L384.56,10.25L387.16,9.3L388.46,10.97L389.76,10.34L391.06,11.57L392.36,10.56L393.66,11.34L394.96,11.08L396.26,11.65L400.15,11.36L401.45,10.25L404.05,10.86L405.35,10.52L406,10.52" style="vector-effect: non-scaling-stroke; fill: none; stroke: rgb(60, 179, 113); stroke-opacity: 1; stroke-width: 2px; opacity: 1;"/></g><g class="points"/><g class="text"/></g><g class="trace scatter trace2b7186" style="stroke-miterlimit: 2; opacity: 0.8;"><g class="fills"/><g class="errorbars"/><g class="lines"><path class="js-line" d="M0,142.5L406,142.5" style="vector-effect: non-scaling-stroke; fill: none; stroke: rgb(112, 128, 144); stroke-opacity: 1; stroke-width: 2px; opacity: 1;"/></g><g class="points"/><g class="text"/></g></g></g><g class="overplot"/><path class="xlines-above crisp" d="M0,0" style="fill: none;"/><path class="ylines-above crisp" d="M0,0" style="fill: none;"/><g class="overlines-above"/><g class="xaxislayer-above"><g class="xtick"><text text-anchor="middle" x="0" y="196" transform="translate(39,0)" style="font-family: serif; font-size: 12px; fill: rgb(42, 63, 95); fill-opacity: 1; white-space: pre; opacity: 1;">0</text></g><g class="xtick"><text text-anchor="middle" x="0" y="196" style="font-family: serif; font-size: 12px; fill: rgb(42, 63, 95); fill-opacity: 1; white-space: pre; opacity: 1;" transform="translate(168.92,0)">1M</text></g><g class="xtick"><text text-anchor="middle" x="0" y="196" style="font-family: serif; font-size: 12px; fill: rgb(42, 63, 95); fill-opacity: 1; white-space: pre; opacity: 1;" transform="translate(298.84,0)">2M</text></g><g class="xtick"><text text-anchor="middle" x="0" y="196" style="font-family: serif; font-size: 12px; fill: rgb(42, 63, 95); fill-opacity: 1; white-space: pre; opacity: 1;" transform="translate(428.76,0)">3M</text></g></g><g class="yaxislayer-above"><g class="ytick"><text text-anchor="end" x="38" y="4.199999999999999" transform="translate(0,181.82)" style="font-family: serif; font-size: 12px; fill: rgb(42, 63, 95); fill-opacity: 1; white-space: pre; opacity: 1;">75</text></g><g class="ytick"><text text-anchor="end" x="38" y="4.199999999999999" style="font-family: serif; font-size: 12px; fill: rgb(42, 63, 95); fill-opacity: 1; white-space: pre; opacity: 1;" transform="translate(0,146.17000000000002)">80</text></g><g class="ytick"><text text-anchor="end" x="38" y="4.199999999999999" style="font-family: serif; font-size: 12px; fill: rgb(42, 63, 95); fill-opacity: 1; white-space: pre; opacity: 1;" transform="translate(0,110.52)">85</text></g><g class="ytick"><text text-anchor="end" x="38" y="4.199999999999999" style="font-family: serif; font-size: 12px; fill: rgb(42, 63, 95); fill-opacity: 1; white-space: pre; opacity: 1;" transform="translate(0,74.87)">90</text></g><g class="ytick"><text text-anchor="end" x="38" y="4.199999999999999" style="font-family: serif; font-size: 12px; fill: rgb(42, 63, 95); fill-opacity: 1; white-space: pre; opacity: 1;" transform="translate(0,39.22)">95</text></g></g><g class="overaxes-above"/></g></g><g class="polarlayer"/><g class="smithlayer"/><g class="ternarylayer"/><g class="geolayer"/><g class="funnelarealayer"/><g class="pielayer"/><g class="iciclelayer"/><g class="treemaplayer"/><g class="sunburstlayer"/><g class="glimages"/><defs id="topdefs-35fc99"><g class="clips"/><clipPath id="legend35fc99"><rect width="360" height="29" x="0" y="0"/></clipPath></defs><g class="layer-above"><g class="imagelayer"/><g class="shapelayer"/></g><g class="infolayer"><g class="legend" pointer-events="all" transform="translate(85,0.9999999999999964)"><rect class="bg" shape-rendering="crispEdges" style="stroke: rgb(68, 68, 68); stroke-opacity: 1; fill: rgb(255, 255, 255); fill-opacity: 1; stroke-width: 0px;" width="360" height="29" x="0" y="0"/><g class="scrollbox" transform="" clip-path="url(#legend35fc99)"><g class="groups" transform=""><g class="traces" transform="translate(0,14.5)" style="opacity: 1;"><text class="legendtext" text-anchor="start" x="40" y="4.680000000000001" style="font-family: serif; font-size: 12px; fill: rgb(42, 63, 95); fill-opacity: 1; white-space: pre;">Exp. 1</text><g class="layers" style="opacity: 0.8;"><g class="legendfill"/><g class="legendlines"><path class="js-line" d="M5,0h30" style="fill: none; stroke: rgb(65, 105, 225); stroke-opacity: 1; stroke-width: 2px;"/></g><g class="legendsymbols"><g class="legendpoints"/></g></g><rect class="legendtoggle" x="0" y="-9.5" width="73.84375" height="19" style="fill: rgb(0, 0, 0); fill-opacity: 0;"/></g></g><g class="groups" transform="translate(76.34375,0)"><g class="traces" transform="translate(0,14.5)" style="opacity: 1;"><text class="legendtext" text-anchor="start" x="40" y="4.680000000000001" style="font-family: serif; font-size: 12px; fill: rgb(42, 63, 95); fill-opacity: 1; white-space: pre;">Exp. 2</text><g class="layers" style="opacity: 0.8;"><g class="legendfill"/><g class="legendlines"><path class="js-line" d="M5,0h30" style="fill: none; stroke: rgb(255, 127, 80); stroke-opacity: 1; stroke-width: 2px;"/></g><g class="legendsymbols"><g class="legendpoints"/></g></g><rect class="legendtoggle" x="0" y="-9.5" width="73.84375" height="19" style="fill: rgb(0, 0, 0); fill-opacity: 0;"/></g></g><g class="groups" transform="translate(152.6875,0)"><g class="traces" transform="translate(0,14.5)" style="opacity: 1;"><text class="legendtext" text-anchor="start" x="40" y="4.680000000000001" style="font-family: serif; font-size: 12px; fill: rgb(42, 63, 95); fill-opacity: 1; white-space: pre;">Exp. 3</text><g class="layers" style="opacity: 0.8;"><g class="legendfill"/><g class="legendlines"><path class="js-line" d="M5,0h30" style="fill: none; stroke: rgb(60, 179, 113); stroke-opacity: 1; stroke-width: 2px;"/></g><g class="legendsymbols"><g class="legendpoints"/></g></g><rect class="legendtoggle" x="0" y="-9.5" width="73.84375" height="19" style="fill: rgb(0, 0, 0); fill-opacity: 0;"/></g></g><g class="groups" transform="translate(229.03125,0)"><g class="traces" transform="translate(0,14.5)" style="opacity: 1;"><text class="legendtext" text-anchor="start" x="40" y="4.680000000000001" style="font-family: serif; font-size: 12px; fill: rgb(42, 63, 95); fill-opacity: 1; white-space: pre;">Baseline Random</text><g class="layers" style="opacity: 0.8;"><g class="legendfill"/><g class="legendlines"><path class="js-line" d="M5,0h30" style="fill: none; stroke: rgb(112, 128, 144); stroke-opacity: 1; stroke-width: 2px;"/></g><g class="legendsymbols"><g class="legendpoints"/></g></g><rect class="legendtoggle" x="0" y="-9.5" width="128.15625" height="19" style="fill: rgb(0, 0, 0); fill-opacity: 0;"/></g></g></g><rect class="scrollbar" rx="20" ry="3" width="0" height="0" style="fill: rgb(128, 139, 164); fill-opacity: 1;" x="0" y="0"/></g><g class="g-gtitle"/><g class="g-xtitle" transform="translate(0,-1.8000000000000114)"><text class="xtitle" x="242" y="223.8" text-anchor="middle" style="font-family: serif; font-size: 14px; fill: rgb(42, 63, 95); opacity: 1; font-weight: normal; white-space: pre;">Step</text></g><g class="g-ytitle" transform="translate(10.7998046875,0)"><text class="ytitle" transform="rotate(-90,1.2000000000000028,108)" x="1.2000000000000028" y="108" text-anchor="middle" style="font-family: serif; font-size: 14px; fill: rgb(42, 63, 95); opacity: 1; font-weight: normal; white-space: pre;">Reward</text></g></g></svg>